<svg width="20" height="20" viewBox="0 0 20 20" fill="none" xmlns="http://www.w3.org/2000/svg">
<path d="M11.2126 6.21255C11.3887 6.04491 11.623 5.95224 11.8661 5.95408C12.1092 5.95592 12.3421 6.05213 12.5156 6.22241C12.6892 6.3927 12.7898 6.62373 12.7962 6.86677C12.8026 7.10981 12.7144 7.34584 12.5501 7.52505L7.56258 13.7626C7.47681 13.8549 7.37331 13.9291 7.25824 13.9805C7.14317 14.032 7.01891 14.0597 6.89289 14.062C6.76686 14.0644 6.64166 14.0413 6.52477 13.9941C6.40788 13.9469 6.3017 13.8767 6.21257 13.7876L2.90507 10.4801C2.81297 10.3942 2.73909 10.2907 2.68785 10.1757C2.63661 10.0607 2.60906 9.93659 2.60684 9.81071C2.60461 9.68483 2.62777 9.55979 2.67492 9.44306C2.72207 9.32632 2.79225 9.22028 2.88128 9.13126C2.9703 9.04223 3.07634 8.97205 3.19308 8.9249C3.30981 8.87775 3.43485 8.85459 3.56073 8.85681C3.68661 8.85904 3.81075 8.88659 3.92575 8.93783C4.04075 8.98907 4.14425 9.06295 4.23007 9.15505L6.84758 11.7713L11.1876 6.24005C11.1954 6.2304 11.2037 6.22122 11.2126 6.21255ZM10.0626 12.6376L11.2126 13.7876C11.3017 13.8765 11.4078 13.9466 11.5246 13.9936C11.6413 14.0407 11.7664 14.0637 11.8923 14.0614C12.0181 14.059 12.1422 14.0314 12.2572 13.98C12.3721 13.9287 12.4756 13.8547 12.5613 13.7626L17.5513 7.52505C17.641 7.43656 17.7118 7.3309 17.7597 7.2144C17.8076 7.0979 17.8316 6.97294 17.8301 6.84698C17.8286 6.72102 17.8018 6.59666 17.7512 6.4813C17.7006 6.36595 17.6273 6.26197 17.5356 6.17559C17.4439 6.08921 17.3358 6.02218 17.2176 5.97852C17.0995 5.93486 16.9737 5.91546 16.8479 5.92148C16.7221 5.9275 16.5988 5.95881 16.4853 6.01354C16.3718 6.06828 16.2706 6.14532 16.1876 6.24005L11.8463 11.7713L11.2401 11.1638L10.0613 12.6376H10.0626Z" fill="#7BBCB0"/>
</svg>
