<svg width="40" height="40" viewBox="0 0 40 40" fill="none" xmlns="http://www.w3.org/2000/svg">
<circle cx="20" cy="20" r="20" fill="#E83F3A"/>
<path d="M12.7274 17.4312C12.7274 16.6451 12.8648 15.9025 13.1356 15.2094C13.3943 14.5362 13.7786 13.9183 14.2682 13.3887C14.7567 12.866 15.3158 12.414 15.9293 12.0459C16.5586 11.6651 17.24 11.3778 17.952 11.1931C18.6727 11.0039 19.4147 10.9085 20.1597 10.9092C21.3105 10.9092 22.3816 11.1527 23.3748 11.6377C24.355 12.1138 25.1893 12.8445 25.7906 13.7534C26.411 14.6779 26.7191 15.7237 26.7191 16.8896C26.7191 17.5888 26.6504 18.2728 26.51 18.9417C26.3721 19.6102 26.1529 20.2593 25.8573 20.8746C25.5755 21.4701 25.2071 22.0207 24.764 22.5084C24.3187 22.9882 23.7795 23.3714 23.1798 23.6339C22.5287 23.9193 21.8243 24.0629 21.1135 24.0553C20.6194 24.0553 20.1264 23.9391 19.6394 23.7057C19.1524 23.4733 18.8028 23.154 18.5926 22.7448C18.5189 23.0287 18.4178 23.4389 18.2834 23.9754C18.1541 24.5109 18.0672 24.8565 18.0288 25.0131C17.9884 25.1687 17.9136 25.4284 17.8045 25.7881C17.7305 26.0541 17.6356 26.3139 17.5206 26.565L17.173 27.246C17.0227 27.5383 16.8547 27.821 16.6699 28.0927C16.487 28.3575 16.2607 28.6737 15.9909 29.0374L15.8403 29.091L15.7403 28.9819C15.6322 27.8371 15.5766 27.1521 15.5766 26.9257C15.5766 26.2559 15.6565 25.5041 15.8141 24.6696C15.9687 23.836 16.2132 22.7882 16.5415 21.5283C16.8699 20.2694 17.0579 19.5287 17.1084 19.3095C16.877 18.8376 16.7598 18.2213 16.7598 17.4635C16.7598 16.8583 16.9487 16.2915 17.3276 15.758C17.7075 15.2265 18.1875 14.9608 18.7694 14.9608C19.215 14.9608 19.5606 15.1083 19.8081 15.4044C20.0567 15.6994 20.1779 16.0712 20.1779 16.5249C20.1779 17.0058 20.0183 17.702 19.697 18.6123C19.3757 19.5237 19.216 20.2037 19.216 20.6553C19.216 21.113 19.3797 21.496 19.7071 21.796C20.0301 22.0963 20.4574 22.259 20.8983 22.2497C21.2984 22.2497 21.6692 22.1588 22.0138 21.9759C22.3529 21.7984 22.6465 21.5449 22.8716 21.2353C23.3618 20.5627 23.7113 19.798 23.8991 18.9872C23.9961 18.5608 24.0709 18.1556 24.1174 17.7747C24.1669 17.3918 24.1881 17.0301 24.1881 16.6865C24.1881 15.4266 23.788 14.4445 22.9928 13.7413C22.1936 13.0381 21.1529 12.6885 19.8728 12.6885C18.4168 12.6885 17.1993 13.1593 16.2243 14.104C15.2483 15.0457 14.7572 16.243 14.7572 17.6949C14.7572 18.0152 14.8057 18.3244 14.8977 18.6234C14.9876 18.9215 15.0856 19.1589 15.1917 19.3348C15.2968 19.5075 15.3958 19.6763 15.4857 19.8319C15.5766 19.9875 15.6241 20.0986 15.6241 20.1653C15.6241 20.3694 15.5706 20.6351 15.4625 20.9635C15.3503 21.2919 15.2179 21.4555 15.0583 21.4555C15.0432 21.4555 14.9805 21.4444 14.8714 21.4212C14.4935 21.3084 14.1522 21.0975 13.8822 20.8099C13.5957 20.5119 13.3696 20.1612 13.2164 19.7773C13.0636 19.3947 12.9446 18.9995 12.8607 18.5962C12.7701 18.2145 12.7254 17.8234 12.7274 17.4312Z" fill="white"/>
</svg>
